<?xml version="1.0" standalone="no"?>
<!DOCTYPE svg PUBLIC "-//W3C//DTD SVG 20010904//EN"
 "http://www.w3.org/TR/2001/REC-SVG-20010904/DTD/svg10.dtd">
<svg version="1.0" xmlns="http://www.w3.org/2000/svg"
 width="700.000000pt" height="700.000000pt" viewBox="0 0 700.000000 700.000000"
 preserveAspectRatio="xMidYMid meet">
<metadata>
Created by potrace 1.14, written by Peter Selinger 2001-2017
</metadata>
<g transform="translate(0.000000,700.000000) scale(0.100000,-0.100000)"
fill="#000000" stroke="none">
<path d="M3440 5830 c-24 -7 -115 -44 -195 -80 -22 -10 -97 -43 -167 -74 -71
-31 -183 -80 -250 -110 -68 -30 -199 -87 -293 -129 -93 -41 -190 -83 -215 -95
-56 -25 -382 -169 -430 -189 -19 -8 -48 -21 -65 -28 -102 -45 -155 -68 -380
-167 -137 -61 -268 -118 -290 -128 -22 -9 -78 -34 -125 -55 -88 -38 -140 -61
-200 -88 -19 -8 -73 -32 -120 -52 -47 -21 -110 -48 -140 -62 -30 -14 -70 -31
-87 -39 -18 -8 -50 -22 -70 -31 -21 -9 -108 -47 -193 -84 -120 -52 -161 -75
-183 -102 -37 -45 -44 -95 -22 -152 19 -52 48 -72 191 -134 49 -21 112 -49
139 -61 28 -13 52 -24 55 -25 14 -5 450 -195 525 -230 17 -7 93 -41 170 -75
77 -33 157 -68 177 -77 26 -11 38 -24 39 -37 0 -12 1 -327 1 -701 0 -651 1
-683 20 -745 99 -321 625 -590 1388 -709 69 -11 157 -23 195 -26 39 -4 81 -8
95 -10 210 -30 826 -24 1085 10 17 2 53 7 80 10 120 15 249 38 375 66 618 137
1025 375 1118 654 19 57 20 90 20 735 1 371 1 689 2 706 0 29 5 33 73 62 39
17 137 59 217 94 l145 64 0 -937 0 -937 -45 -40 c-72 -63 -95 -119 -95 -228 0
-91 0 -91 -36 -128 -73 -75 -118 -196 -114 -306 5 -122 128 -392 299 -660 103
-161 130 -200 136 -200 12 0 230 342 230 360 0 5 6 15 14 23 21 21 141 270
167 347 24 71 31 170 17 234 -14 64 -63 157 -108 204 -36 37 -41 47 -35 74 23
101 -13 207 -94 281 l-46 42 2 995 c0 547 2 998 2 1001 1 4 25 17 54 29 28 12
80 36 115 51 34 16 65 29 67 29 2 0 30 12 62 26 250 111 274 130 279 220 5
104 -11 115 -411 289 -121 53 -238 104 -260 114 -22 10 -94 42 -160 71 -66 29
-140 61 -165 72 -25 11 -137 61 -250 110 -166 73 -529 233 -745 328 -636 281
-1396 615 -1414 622 -32 12 -119 16 -151 8z"/>
</g>
</svg>
